<svg width="59" height="41" viewBox="0 0 59 41" fill="none" xmlns="http://www.w3.org/2000/svg">
<g clip-path="url(#clip0_4802_811)">
<path d="M22.6604 0.387405C22.6604 0.58818 22.6604 0.772223 22.6604 0.96045C22.6604 8.74048 22.6644 16.5205 22.6523 24.3005C22.6523 24.6812 22.7658 24.8736 23.0941 25.0283C23.7022 25.3128 24.2981 25.6349 24.8777 25.9737C25.0156 26.0531 25.1412 26.2623 25.1615 26.4296C25.2061 26.7475 25.1737 27.0737 25.1737 27.4502C24.9872 27.4502 24.8372 27.4502 24.6832 27.4502C23.2563 27.4502 21.8253 27.4 20.3984 27.4627C19.0445 27.5255 17.6095 26.576 17.6014 24.6017C17.5973 23.4221 17.6014 22.2426 17.6014 21.0672C17.6014 15.1569 17.6014 9.25078 17.6014 3.34047C17.6014 2.27385 17.8973 1.35782 18.8053 0.763858C19.085 0.579814 19.4296 0.416684 19.7498 0.399953C20.7065 0.358125 21.6591 0.387405 22.6604 0.387405Z" fill="#121212"/>
<path d="M8.72852 12.8442C10.3905 12.8442 12.0363 12.8442 13.7145 12.8442C13.7145 17.7298 13.7145 22.6069 13.7145 27.505C12.0485 27.505 10.4027 27.505 8.72852 27.505C8.72852 22.6111 8.72852 17.7423 8.72852 12.8442Z" fill="#121212"/>
<path d="M26.5117 27.5464C26.5117 22.6483 26.5117 17.7962 26.5117 12.9023C28.1616 12.9023 29.8073 12.9023 31.4896 12.9023C31.4896 17.7669 31.4896 22.6483 31.4896 27.5464C29.8357 27.5464 28.198 27.5464 26.5117 27.5464Z" fill="#121212"/>
<path d="M4.86869 27.4414C3.81068 27.4414 2.76483 27.5376 1.74331 27.4163C0.697463 27.2909 -0.137595 26.1531 -0.141649 25.0447C-0.15381 21.7737 -0.157863 18.5028 -0.141649 15.2318C-0.133541 14.0397 0.908254 12.8769 2.05544 12.789C2.8378 12.7305 3.62421 12.7681 4.41063 12.764C4.55251 12.764 4.69438 12.764 4.86464 12.764C4.86869 17.6913 4.86869 22.5852 4.86869 27.4414Z" fill="#121212"/>
<path d="M40.3648 21.2889C40.3729 21.4144 40.385 21.5399 40.385 21.6653C40.385 26.8688 40.3769 32.068 40.3891 37.2714C40.3931 38.8525 39.1811 40.1408 37.6934 40.0362C36.9272 39.9819 36.157 40.0279 35.3544 40.0279C35.3544 33.7453 35.3544 27.5296 35.3544 21.2931L35.3382 19.6701C35.3382 19.3146 35.3382 18.9674 35.3382 18.6244C35.3382 17.7126 35.326 16.7965 35.3463 15.8847C35.3504 15.6212 35.2612 15.4915 35.0382 15.3869C34.4059 15.0858 33.7856 14.7553 33.1533 14.4542C32.9019 14.3371 32.7763 14.1865 32.8047 13.8853C32.833 13.5967 32.8128 13.3039 32.8128 12.9735C32.9911 12.9651 33.129 12.9525 33.2668 12.9525C34.7383 12.9525 36.2097 12.9484 37.6772 12.9525C39.3108 12.9567 40.381 14.0652 40.381 15.7467C40.381 17.0391 40.381 18.3358 40.381 19.6701L40.3648 21.2889Z" fill="#121212"/>
<path d="M49.1762 21.3413C49.1762 23.4536 49.1762 25.5408 49.1762 27.6573C47.5142 27.6573 45.8643 27.6573 44.178 27.6573C44.178 25.5659 44.178 23.4704 44.178 21.3413L44.1699 19.7058C44.1699 17.4806 44.1699 15.2637 44.1699 13.0259C45.836 13.0259 47.4858 13.0259 49.1681 13.0259C49.1681 15.2762 49.1681 17.4806 49.1681 19.7058L49.1762 21.3413Z" fill="#121212"/>
<path d="M26.4987 35.2553C26.4987 34.7116 26.4906 34.1678 26.5028 33.624C26.5149 33.005 26.896 32.6076 27.5 32.5993C28.4972 32.5867 29.4944 32.5867 30.4956 32.5993C31.1037 32.6076 31.4969 32.9841 31.5131 33.6115C31.5374 34.699 31.5374 35.7907 31.5131 36.8783C31.4969 37.4973 31.0956 37.8696 30.4835 37.878C29.4984 37.8905 28.5174 37.8905 27.5324 37.878C26.8554 37.8696 26.5109 37.4973 26.5068 36.803C26.4947 36.2885 26.4987 35.774 26.4987 35.2553Z" fill="#121212"/>
<path d="M26.4998 4.98421C26.4998 4.453 26.4958 3.92596 26.4998 3.39475C26.508 2.76732 26.8728 2.35323 27.4687 2.34486C28.4821 2.33231 29.4915 2.33231 30.5049 2.34486C31.0927 2.35323 31.4899 2.7255 31.5061 3.32782C31.5345 4.4279 31.5345 5.53216 31.5061 6.63643C31.4899 7.25548 31.1129 7.59011 30.5049 7.59847C29.4915 7.60684 28.4821 7.61102 27.4687 7.59847C26.8363 7.59011 26.508 7.23457 26.4998 6.57368C26.4958 6.04247 26.4998 5.51125 26.4998 4.98421Z" fill="#121212"/>
<path d="M52.7676 13.1133H55.5395C57.0703 13.1133 58.3113 14.3543 58.3113 15.8852V24.8937C58.3113 26.4246 57.0703 27.6656 55.5395 27.6656H52.7676V13.1133Z" fill="#121212"/>
</g>
<defs>
<clipPath id="clip0_4802_811">
<rect width="59" height="41" fill="white"/>
</clipPath>
</defs>
</svg>
